<svg id="Capa_1" data-name="Capa 1" xmlns="http://www.w3.org/2000/svg" viewBox="0 0 57.1 27.8"><defs><style>.cls-1{fill:red;}.cls-2{fill:#d92c23;}.cls-3{fill:#d2403f;}.cls-4{fill:#d6342e;}.cls-5{fill:#d62d1f;}.cls-6{fill:#db2b22;}.cls-7{fill:#d52f2a;}.cls-8{fill:#231f20;}.cls-9{fill:#babbbd;}.cls-10{fill:#e23232;}.cls-11{fill:#252827;}.cls-12{fill:#c1b0b6;}.cls-13{fill:#dc2a27;}.cls-14{fill:#d5312e;}.cls-15{fill:#cd3a38;}.cls-16{fill:#ce3a35;}.cls-17{fill:#ec2b29;}.cls-18{fill:#dc3739;}.cls-19{fill:#d4312f;}.cls-20{fill:#d62d27;}.cls-21{fill:#e6302b;}.cls-22{fill:#e92c28;}.cls-23{fill:#d23635;}.cls-24{fill:#cd3833;}.cls-25{fill:#e6362f;}.cls-26{fill:#e2393b;}.cls-27{fill:#d33637;}.cls-28{fill:#e43539;}.cls-29{fill:#de433e;}.cls-30{fill:#df4c4e;}.cls-31{fill:#e62f32;}.cls-32{fill:#ea2d27;}.cls-33{fill:#e72e30;}.cls-34{fill:#eb2b26;}.cls-35{fill:#dc2a21;}.cls-36{fill:#dc2a22;}.cls-37{fill:#d82d26;}.cls-38{fill:#d62c21;}.cls-39{fill:#da2a20;}.cls-40{fill:#d82d20;}.cls-41{fill:#de2920;}.cls-42{fill:#df292e;}.cls-43{fill:#df2a1f;}.cls-44{fill:#da2c1f;}.cls-45{fill:#d52819;}.cls-46{fill:#da2a1b;}.cls-47{fill:#ed292b;}.cls-48{fill:#ea2b25;}.cls-49{fill:#ed2a2d;}.cls-50{fill:#ea2c26;}.cls-51{fill:#ea2a21;}.cls-52{fill:#e82d2e;}.cls-53{fill:#e92d22;}.cls-54{fill:#ec2a22;}.cls-55{fill:#ee272e;}.cls-56{fill:#ec2922;}.cls-57{fill:#e92b2d;}.cls-58{fill:#ec2821;}</style></defs><title>logo</title><path class="cls-1" d="M33.7,25.4v3.4h-.4V25.4Z" transform="translate(-6.8 -7.3)"/><path class="cls-1" d="M35.6,28.8V25.4H36l1.1,1.7a7.5,7.5,0,0,1,.7,1.2h0a7.1,7.1,0,0,1-.1-1.5V25.4h.4v3.4h-.4l-1.1-1.7c-.2-.4-.5-.8-.6-1.1h-.1a5.7,5.7,0,0,1,.1,1.4v1.4Z" transform="translate(-6.8 -7.3)"/><path class="cls-1" d="M41.8,27.3a6.6,6.6,0,0,1,0-1.4h-.1a9.3,9.3,0,0,1-.4,1.3l-.6,1.6h-.3l-.6-1.6a9.3,9.3,0,0,1-.4-1.3h0a8.1,8.1,0,0,1-.1,1.5v1.4h-.4l.3-3.4h.5l.6,1.7a7.6,7.6,0,0,1,.4,1.1h0l.3-1.1.6-1.7h.6l.2,3.4h-.4Z" transform="translate(-6.8 -7.3)"/><path class="cls-1" d="M45.9,27.1c0,1.2-.7,1.8-1.5,1.8a1.6,1.6,0,0,1-1.6-1.7,1.6,1.6,0,0,1,1.6-1.8A1.5,1.5,0,0,1,45.9,27.1Zm-2.6,0c0,.8.4,1.4,1.1,1.4s1.1-.6,1.1-1.4a1.1,1.1,0,1,0-2.2,0Z" transform="translate(-6.8 -7.3)"/><path class="cls-1" d="M46.5,25.5h.8a2.2,2.2,0,0,1,1,.2A.8.8,0,0,1,48,27h0a1,1,0,0,1,.7.9.9.9,0,0,1-.3.7,1.7,1.7,0,0,1-1.2.3h-.7Zm.5,1.4h.4a.7.7,0,0,0,.7-.6c0-.4-.3-.6-.7-.6s-.4,0-.4.1Zm0,1.6h.3c.5,0,.9-.1.9-.6s-.4-.7-.9-.7H47Z" transform="translate(-6.8 -7.3)"/><path class="cls-1" d="M49.7,25.4v3.4h-.4V25.4Z" transform="translate(-6.8 -7.3)"/><path class="cls-1" d="M50.5,25.4H51v3.1h1.4v.3H50.5Z" transform="translate(-6.8 -7.3)"/><path class="cls-1" d="M53.4,25.4v3.4h-.5V25.4Z" transform="translate(-6.8 -7.3)"/><path class="cls-1" d="M54.7,27.8l-.4,1h-.4l1.2-3.4h.5l1.2,3.4h-.5l-.4-1Zm1.1-.4-.3-1c-.1-.2-.1-.4-.2-.6h0c-.1.2-.1.4-.2.6l-.3,1Z" transform="translate(-6.8 -7.3)"/><path class="cls-1" d="M57.3,25.5h.8a1.3,1.3,0,0,1,1,.3.7.7,0,0,1,.3.6.9.9,0,0,1-.7.9h0a.7.7,0,0,1,.5.7,8.5,8.5,0,0,0,.3.9H59c0-.1-.1-.3-.2-.8s-.3-.6-.7-.6h-.4v1.4h-.4Zm.4,1.5h.5c.4,0,.7-.2.7-.6s-.3-.7-.8-.7h-.4Z" transform="translate(-6.8 -7.3)"/><path class="cls-1" d="M60.5,25.4v3.4H60V25.4Z" transform="translate(-6.8 -7.3)"/><path class="cls-1" d="M61.8,27.8l-.4,1H61l1.1-3.4h.6l1.1,3.4h-.4l-.4-1Zm1.1-.4-.3-1c-.1-.2-.1-.4-.2-.6h0c-.1.2-.1.4-.2.6l-.3,1Z" transform="translate(-6.8 -7.3)"/><path class="cls-1" d="M33.6,32.6v-.9l-.7-1.2h.3l.3.6a.8.8,0,0,1,.2.4h0l.3-.4.3-.6h.3l-.7,1.2v.9Z" transform="translate(-6.8 -7.3)"/><path class="cls-1" d="M48.5,32l-.2.6H48l.7-2.1h.4l.7,2.1h-.3l-.2-.6Zm.7-.3-.2-.6c0-.1-.1-.2-.1-.4h0c0,.2-.1.3-.1.4l-.2.6Z" transform="translate(-6.8 -7.3)"/><path class="cls-1" d="M62.1,30.5h1.2v.2h-.9v.7h.8v.3h-.8v.9h-.3Z" transform="translate(-6.8 -7.3)"/><path class="cls-2" d="M15.4,33.1h0c0,.2,0,.3-.2.3s-.4.2-.4-.1,0-.6.3-.7S15.4,32.9,15.4,33.1Z" transform="translate(-6.8 -7.3)"/><path class="cls-3" d="M14.2,35c.2-.1.2-.4.4-.5s0-.2.1-.2.2-.4.5-.5-.6.8-.8,1.3h-.2Z" transform="translate(-6.8 -7.3)"/><path class="cls-4" d="M14.2,35h-7c-.4,0-.6-.1-.3-.5a1,1,0,0,0,.4-.5c-.1.8,0,.9.8.9s.2-.2.3,0Z" transform="translate(-6.8 -7.3)"/><path class="cls-4" d="M7.8,33.3c0,.1,0,.2.1.2s-.3.5-.6.6A2.2,2.2,0,0,1,7.8,33.3Z" transform="translate(-6.8 -7.3)"/><path class="cls-5" d="M8.9,32l.2-.3.5-.2c0,.2.1.5-.2.7A.4.4,0,0,1,8.9,32Z" transform="translate(-6.8 -7.3)"/><path class="cls-6" d="M15.5,31.6a.5.5,0,0,1,.4.6h0c-.6.1-.3-.4-.4-.6Z" transform="translate(-6.8 -7.3)"/><path class="cls-2" d="M14.7,34.3v.2a.4.4,0,0,1-.2-.5c.1,0,.2-.1.2,0S14.7,34.2,14.7,34.3Z" transform="translate(-6.8 -7.3)"/><path class="cls-7" d="M8.4,35a.2.2,0,0,0-.3,0c0-.2,0-.3.2-.3S8.4,34.9,8.4,35Z" transform="translate(-6.8 -7.3)"/><path class="cls-8" d="M10.5,7.3h0c1.7.1,3.4,0,5.1,0s.8,0,.8.8v8a2.9,2.9,0,0,1-.7,2.5,1,1,0,0,0-.4.7c-.6,1.1-1.3,2.1-2,3.2s-1.6,2.5-2.4,3.8-.2.5-.5.5-.1-.4-.1-.7V8.5C10.3,8.1,10.1,7.6,10.5,7.3Z" transform="translate(-6.8 -7.3)"/><path class="cls-9" d="M34.7,18.5v-.3c-.1-.2-.4-.2-.3-.5l2.3-3.9A7.8,7.8,0,0,0,37.7,12a1.3,1.3,0,0,1,.5-.6c.2,0,.2.3.4.4s.1.4.2.5l4,6.7a14,14,0,0,0,1,1.6c.1.3.2.5-.3.5H36.8c-.4,0-.6-.1-.7-.4s-.7-1.1-1-1.6A2.1,2.1,0,0,1,34.7,18.5Z" transform="translate(-6.8 -7.3)"/><path class="cls-10" d="M30,24.3c0,.3-.3.5-.4.9h0a4.1,4.1,0,0,1-.7,1.1h0c-.5.3-.6.9-.9,1.3h-.1v-.2l.3-.8a3.3,3.3,0,0,1,.6-1,.5.5,0,0,0,.2-.4.1.1,0,0,0,.1-.1l.5-.7C29.7,24.4,29.8,24.2,30,24.3Z" transform="translate(-6.8 -7.3)"/><path class="cls-11" d="M15.5,18.7l-.3.5C15.2,18.9,15.2,18.7,15.5,18.7Z" transform="translate(-6.8 -7.3)"/><path class="cls-12" d="M34.3,17.7h0c-.2-.2-.1-.3,0-.5,1.2-1.8,2.3-3.7,3.5-5.6l.3-.3a.4.4,0,0,1,.1.3L36.7,14l-1.5,2.5C34.9,16.9,34.8,17.4,34.3,17.7Z" transform="translate(-6.8 -7.3)"/><path class="cls-13" d="M15.2,33.5v.3c-.2.2-.3.4-.5.5s0,.2-.1.2-.2.6-.6.5H8.7a2.2,2.2,0,0,0-.8,0c-.8,0-.9-.2-.6-.9h0l.5-.7a8.3,8.3,0,0,1,1.1-1.5h.3c.2,0,.2-.2.3-.4s-.1.2-.3.2H9.1c-.1-.5.2-.7.5-1s.4.5.6.6-.2-.6-.4-.9a2.4,2.4,0,0,1,.7-1.2l.3-.2a.1.1,0,0,0,.1-.1c.2-.1.4-.2.5.1a1.3,1.3,0,0,0-.3-.8c0-.3.4-.2.4-.4a.7.7,0,0,0,.3-.8,18.9,18.9,0,0,1,1.9-3,.7.7,0,0,0,.2-.6h-.1c.1-.2.2-.5.4-.6h0c.1-.1.1-.3.2-.4l.2-.2.8-1.3.7-1c.2-.1.2-.5.5-.5s.3.3.4,0,.6-1,.6-1.6a4.8,4.8,0,0,1,.8-1.6.8.8,0,0,0,.2-.4h0c.4-.3.5-.8.8-1.1a17.6,17.6,0,0,1,1.4-2.3c.1-.2.2-.5.5-.5s.5-.4.9-.5a19.2,19.2,0,0,1,2.4,0h3.5c.6,0,.7.1.4.6l-.5.9L27.2,14l-.3.2c-.2-.1-.4.1-.6,0s-.1.1-.1.2h0a.9.9,0,0,1-.2,1.4c-.4.4-.4.9-.7,1.3a1,1,0,0,1-.4.5h-.2a1.4,1.4,0,0,1-.2.7.1.1,0,0,1-.1.1c-.3-.1-.1.1-.1.2s-.7,1.1-.9,1.7h0a7.1,7.1,0,0,0-1.2,1.8l-1,1.7h0a.8.8,0,0,0-.5.5,10.1,10.1,0,0,1-.9,1.8c-1.2,1.9-2.4,3.8-3.5,5.7-.1.1-.1.3-.4.3s-.2-.4-.3-.5h0c-.1,0-.1.1,0,.1s.1.4.3.6a1,1,0,0,1-.5.8c-.1,0-.2-.2-.3,0S15,33.4,15.2,33.5Z" transform="translate(-6.8 -7.3)"/><path class="cls-7" d="M8.9,32a7.8,7.8,0,0,0-1,1.5c-.2,0-.2-.1-.1-.2l1.6-2.7a3.3,3.3,0,0,1,.6-1h0a3.3,3.3,0,0,1,.6-1h0a3.3,3.3,0,0,1,.6-1A34.8,34.8,0,0,0,13.4,24c.1-.3.3-.4.5-.6s.4.7-.2.8h-.2c-.5.9-1,1.8-1.6,2.7s-.3.6-.3.9-.4.1-.4.3a1.6,1.6,0,0,1-.3.9h-.3a7.5,7.5,0,0,0-.7,1.2c0,.2-.1.3-.3.4a1.3,1.3,0,0,0-.5.9C9.1,31.9,9.1,32,8.9,32Z" transform="translate(-6.8 -7.3)"/><path class="cls-14" d="M27.8,12.9c.2-.2.2-.5.3-.7s.5-.9-.5-.9H22.7a1.1,1.1,0,0,0-.7.2l-.7.3c-.5.4-.5,1.1-1,1.5s-.3,1.1-.9,1.3-.1-.1,0-.2.2-.5.4-.8.3-.4.4-.7l1-1.4a.5.5,0,0,1,.6-.4l7.2.2a14,14,0,0,1-1,1.6Z" transform="translate(-6.8 -7.3)"/><path class="cls-15" d="M16.6,19.3c-.2.1-.2.4-.5.5a15.9,15.9,0,0,1,1.3-2.2h.1A2.4,2.4,0,0,1,16.6,19.3Z" transform="translate(-6.8 -7.3)"/><path class="cls-16" d="M17.5,17.7h-.1l1.2-1.9c.2.2.1.3-.1.5a3.6,3.6,0,0,0-.8,1.5C17.6,17.8,17.5,17.8,17.5,17.7Z" transform="translate(-6.8 -7.3)"/><path class="cls-16" d="M19.4,14.4v.2c-.2.4-.3.9-.8,1.1A5.7,5.7,0,0,1,19.4,14.4Z" transform="translate(-6.8 -7.3)"/><path class="cls-17" d="M29.2,25.3l-.3.4c-.2.1-.4-.2-.6.1h-.1c-.4.4-.1.6.1.9l-.4.7c-.3,0-.6.3-.9.4h-.4c-.4,0-.5.4-.9.3H22.5c-.2,0-.4,0-.3-.2s.1-.2.3-.2h-.3c-.1-.4.3-.3.5-.3h3.2c-1.1,0-2.2-.1-3.2,0s-.4-.1-.6.2,0,.5-.3.6h-.4c-.4-.2-.2-.8-.6-.9s.1-.8.6-.6.2-.2.4-.3-.5.4-.6-.1.8-1.2,1.1-1.8h0a4.7,4.7,0,0,0,.7-1.2l.6-1a5.6,5.6,0,0,0,.5-.8h0c.5-.4.6-1,1-1.5l.2-.4h0c.3-.3.3-.8.7-.9h.1c.3,0,.2.7.7.4a1.2,1.2,0,0,0,.5-1.3v-.2c.2.4.3.8-.1,1.1a.7.7,0,0,1-1-.1,16.5,16.5,0,0,1,1.4-2.6,10.1,10.1,0,0,1,.9-1.3c.2.1.2.5.4.6s-.1-.5-.3-.7v-.2l.3-.6.6-1c.4-.3.5-.8.8-1.2a1,1,0,0,1,.4-.5h.2c0,.1-.1.3.1.2s.4-.2.6-.3h4.2a10.9,10.9,0,0,1,1.8.1c-.2.4-.5.3-.7.4H36c1-.1,1.1,0,1,.8a7.2,7.2,0,0,1-1.1,1.9c-.4.1-.2-.4-.4-.4s-.2-.1-.3-.1a1.1,1.1,0,0,1-1.4.1,1.7,1.7,0,0,1,.5,1.6c-.1.4.4.4.4.8s-.5.7-.7,1.1-.3.8-.7,1-.3-.5-.6-.9a1.4,1.4,0,0,0,.6,1,.8.8,0,0,1-.5.5.4.4,0,0,0-.4.2v.2c0,.4-.4.3-.4.4a2.4,2.4,0,0,1,.2.8A32.6,32.6,0,0,1,30,24.3c-.4.2-.5.7-.8,1s0-.5.1-.9S28.7,24.8,29.2,25.3Z" transform="translate(-6.8 -7.3)"/><path class="cls-18" d="M34,17.7c0-.4.6-.7.6-1.2s.4-.7.5-1l.6-.8h.1a7.2,7.2,0,0,0,1.1-1.9c.2-.3.2-.7.5-1s0-.3-.2-.3H31.9a.7.7,0,0,0-.6.2h-.2l-.5-.2-.4.5c0,.1,0,.1-.1,0a.7.7,0,0,1,.7-.6h7.3c-.6,1.2-1.4,2.3-2.1,3.5s-1.2,1.9-1.7,2.9l-.3.3C33.9,17.9,33.9,17.8,34,17.7Z" transform="translate(-6.8 -7.3)"/><path class="cls-19" d="M15.9,32.2c.7-1.1,1.3-2.2,2-3.2a11.9,11.9,0,0,0,.9-1.5c.3-.7,1-1.1,1-1.9s.4-.3.5-.6a1.4,1.4,0,0,0,.3-.9c0-.5.4-.1.6-.2-.8,1.4-1.6,2.8-2.5,4.1s-1.9,3.2-2.9,4.7-.1.5-.4.5h0c.1-.4.4-.6.5-.9Z" transform="translate(-6.8 -7.3)"/><path class="cls-20" d="M24.5,18.5a.8.8,0,0,1,.2-.8h.1a2.4,2.4,0,0,0,.7-1.6c.5,0,.3-.6.7-.7s.3-.3.1-.4-.3-.4-.3-.7h.2c.1.1.1.3.3.4s.2-.3.3-.4h.3c.2.2-.1.3-.1.5l-2.4,4Z" transform="translate(-6.8 -7.3)"/><path class="cls-21" d="M28.4,14.8c-.4.9-1,1.6-1.4,2.5l-.9,1.4c0,.1-.1.1-.1,0v-.3l2.4-3.9h.2v.2Z" transform="translate(-6.8 -7.3)"/><path class="cls-22" d="M21.3,26.4c0,.2.1.2.2.1s.2-.5.4-.3-.1.3-.2.5a.8.8,0,0,1-.1.4c-.5-.6-.6,0-.8.3h-.1v-.4l.3-.4S21.2,26.3,21.3,26.4Z" transform="translate(-6.8 -7.3)"/><path class="cls-23" d="M22.2,22.2c0-.4.6-.7.4-1.2s.4-.6.8-.6l-1.2,2C22.1,22.3,22.1,22.3,22.2,22.2Z" transform="translate(-6.8 -7.3)"/><path class="cls-24" d="M24.5,18.5h.1l-1.2,1.9a2.6,2.6,0,0,1,.5-1.2.9.9,0,0,0,.3-.6Z" transform="translate(-6.8 -7.3)"/><path class="cls-25" d="M25.3,19.6c-.1.8-.8,1.2-.9,1.9s-.2,0-.3,0Z" transform="translate(-6.8 -7.3)"/><path class="cls-19" d="M22.2,22.2v.2a13,13,0,0,1-1,1.5A3,3,0,0,1,22.2,22.2Z" transform="translate(-6.8 -7.3)"/><path class="cls-26" d="M21.3,26.4h-.2a10,10,0,0,1,1.2-1.9A10.4,10.4,0,0,1,21.3,26.4Z" transform="translate(-6.8 -7.3)"/><path class="cls-27" d="M27,14.5V14c.3-.3.3-.8.7-1.1H28A8.6,8.6,0,0,1,27,14.5Z" transform="translate(-6.8 -7.3)"/><path class="cls-28" d="M30.1,11.7h.1c-.2.4-.3,1-.8,1.2A7.5,7.5,0,0,1,30.1,11.7Z" transform="translate(-6.8 -7.3)"/><path class="cls-26" d="M23,23.4a1.3,1.3,0,0,1-.7,1.2A2.9,2.9,0,0,1,23,23.4Z" transform="translate(-6.8 -7.3)"/><path class="cls-25" d="M26,18.4v.3a.1.1,0,0,1,.1.1H26c-.4.2-.2.8-.7.9A3.3,3.3,0,0,1,26,18.4Z" transform="translate(-6.8 -7.3)"/><path class="cls-29" d="M24.1,21.6c-.1.3-.2.7-.5.8A1.4,1.4,0,0,1,24.1,21.6Z" transform="translate(-6.8 -7.3)"/><path class="cls-30" d="M28.6,14.5h-.2a.9.9,0,0,1,.4-.6C28.8,14.1,28.6,14.3,28.6,14.5Z" transform="translate(-6.8 -7.3)"/><path class="cls-31" d="M20.7,27.1v.3c.3.2-.2.5.1.7h1c.2,0,.4.1.6,0h3.5c.2.1.3-.1.5-.1h.4c.2.1.4.1.5-.1s.4-.4.6-.3H28c-.2.6-.7.7-1.3.7H20.5c-.2,0-.4.1-.6-.1Z" transform="translate(-6.8 -7.3)"/><path class="cls-32" d="M32.2,20.9c-.2-.3-.2-.7-.5-.9a.4.4,0,0,1,.1-.3H32c.1.1-.1.3.2.3a.6.6,0,0,0,.1-.4c-.1-.4.1-.6.5-.4s.2.3,0,.5l-.5.9A.4.4,0,0,1,32.2,20.9Z" transform="translate(-6.8 -7.3)"/><path class="cls-33" d="M32.3,20.6a.9.9,0,0,1,.4-.8c.1-.2.3-.4.1-.6l.5-.4c-.1,0-.1,0-.1-.1h.1a3,3,0,0,1,.7-1v.2l-1.5,2.6Z" transform="translate(-6.8 -7.3)"/><path class="cls-34" d="M28.3,26.8a.6.6,0,0,1-.5-.5c0-.3.2-.4.4-.5s.4-.3.7-.1S28.4,26.4,28.3,26.8Z" transform="translate(-6.8 -7.3)"/><path class="cls-22" d="M27.9,27.7c-.2.2-.5.1-.5.5s-.3.2-.5,0,0-.2.1-.3.5-.7.9-.4Z" transform="translate(-6.8 -7.3)"/><path class="cls-35" d="M17.5,17.7h.2c.1.4-.2.6-.3.9l-.3.7c0,.2,0,.3-.2.4s-.2-.3-.3-.4A8.3,8.3,0,0,0,17.5,17.7Z" transform="translate(-6.8 -7.3)"/><path class="cls-36" d="M14.7,22.7a5.4,5.4,0,0,0,.7-1.3h.1c.1,0,.1.1.1.2S15.4,22.4,14.7,22.7Z" transform="translate(-6.8 -7.3)"/><path class="cls-37" d="M10.9,29.1a1.1,1.1,0,0,1,.3-.9c.3.2.3.5.4.8s0,.2-.2.3-.1-.1-.1-.2S11.1,29.1,10.9,29.1Z" transform="translate(-6.8 -7.3)"/><path class="cls-37" d="M9.6,30.8l.3-.4a4,4,0,0,1,.4,1.3C10.1,31.3,9.7,31.1,9.6,30.8Z" transform="translate(-6.8 -7.3)"/><path class="cls-20" d="M23.8,18.4c-.1.2-.2.4-.5.3s-.3-.2-.2-.4.2-.2.4-.1S23.8,18.2,23.8,18.4Z" transform="translate(-6.8 -7.3)"/><path class="cls-38" d="M17.5,29.2c-.4-.2-.3-.5-.1-.7s.4-.2.3.2A.8.8,0,0,1,17.5,29.2Z" transform="translate(-6.8 -7.3)"/><path class="cls-39" d="M21.3,11.8c.1-.5.5-.3.7-.3a1,1,0,0,1-.4.5C21.4,12.1,21.3,12,21.3,11.8Z" transform="translate(-6.8 -7.3)"/><path class="cls-40" d="M11.6,27.9c-.2-.4.1-.6.3-.9S12,27.7,11.6,27.9Z" transform="translate(-6.8 -7.3)"/><path class="cls-41" d="M15.7,21.2c.1-.3,0-.6.3-.7l.2.2C16.2,21,16,21.1,15.7,21.2Z" transform="translate(-6.8 -7.3)"/><path class="cls-42" d="M26.5,14.7c-.3,0-.2-.3-.4-.5h.4c.1-.3.3-.2.4,0h0Z" transform="translate(-6.8 -7.3)"/><path class="cls-43" d="M24.8,17.6h-.1c-.2,0-.3-.1-.2-.3h.2C24.8,17.3,24.8,17.5,24.8,17.6Z" transform="translate(-6.8 -7.3)"/><path class="cls-44" d="M20.4,24.5c-.2-.1-.3-.1-.2-.3s.1-.2.2-.1S20.5,24.3,20.4,24.5Z" transform="translate(-6.8 -7.3)"/><path class="cls-6" d="M15.5,31.6c-.1,0-.3,0-.3-.2s.1-.2.2-.1.1.2.1.3Z" transform="translate(-6.8 -7.3)"/><path class="cls-20" d="M24.5,18.5h-.3c-.1-.1-.2-.3,0-.4S24.3,18.4,24.5,18.5Z" transform="translate(-6.8 -7.3)"/><path class="cls-37" d="M10.6,29.2c0-.2,0-.3.2-.1S10.8,29.4,10.6,29.2Z" transform="translate(-6.8 -7.3)"/><path class="cls-45" d="M28,11.6h.3c0,.1,0,.2-.1.1Z" transform="translate(-6.8 -7.3)"/><path class="cls-46" d="M26.3,14.1H26a.4.4,0,0,1,.1-.3Z" transform="translate(-6.8 -7.3)"/><path class="cls-47" d="M34.2,15.8c0-.5.1-1.1-.5-1.4s-.1-.3,0-.4.3,0,.4.1a.5.5,0,0,0,.8,0c.2-.2.5-.2.7-.3s-.1.3-.1.4h0l-.4.5a.7.7,0,0,0-.3.8c0,.2.1.4-.2.5S34.3,16,34.2,15.8Z" transform="translate(-6.8 -7.3)"/><path class="cls-48" d="M34.2,15.8l.5.2c-.2-.6-.2-1.1.4-1.4l.4-.4h0c.5-.1,0,.4.3.4h0c-.3.2-.4.5-.6.7a2,2,0,0,1-.6,1.1c-.2-.1-.2-.3-.4-.3S33.9,15.9,34.2,15.8Z" transform="translate(-6.8 -7.3)"/><path class="cls-47" d="M24.1,27.6H22.5c-.1,0-.4.1-.4-.1s.3-.2.4-.2h3.1c.2.1.7-.2.7.2s-.5.1-.8.1Z" transform="translate(-6.8 -7.3)"/><path class="cls-22" d="M22.4,28.2a.4.4,0,0,1-.6,0c.2-.1,0-.5.4-.6s.6.1.9.1a16.1,16.1,0,0,0,2.2,0c.1.1.4,0,.6.3H22.8a.5.5,0,0,0-.5.1C22.2,28.2,22.3,28.2,22.4,28.2Z" transform="translate(-6.8 -7.3)"/><path class="cls-49" d="M26,18.8h.1a.9.9,0,0,0,1,0,.8.8,0,0,0,0-.9c-.1-.2-.2-.3,0-.4s.2.1.3.3a1.5,1.5,0,0,1-.5,1.6c-.3.3-.6.2-.7-.3Z" transform="translate(-6.8 -7.3)"/><path class="cls-50" d="M37.5,11.8c-.3.2-.2.7-.6.9s0-.8-.8-.7h-.6c.4-.3.8-.1,1.1-.2S37.2,11.5,37.5,11.8Z" transform="translate(-6.8 -7.3)"/><path class="cls-34" d="M29.2,25.3c-.3,0-.6-.2-.5-.5a1.1,1.1,0,0,1,.7-.6c.2-.1.2.2.1.3s-.4.5-.3.8Z" transform="translate(-6.8 -7.3)"/><path class="cls-32" d="M33.3,18.7h0c-.5,0-.5-.6-.8-.7s0-.3.2-.4.2.1.3.2S33.3,18.4,33.3,18.7Z" transform="translate(-6.8 -7.3)"/><path class="cls-51" d="M30.6,22.4l.4-.5a1.9,1.9,0,0,1-.7,1.4v-.6Z" transform="translate(-6.8 -7.3)"/><path class="cls-52" d="M37.5,11.8c-.3-.2-.6,0-.9-.1s.5,0,.8-.2-1.1.1-1.6-.1h1.5C37.7,11.3,37.8,11.5,37.5,11.8Z" transform="translate(-6.8 -7.3)"/><path class="cls-53" d="M21.3,28.2h-.7c0-.3.2-.5.2-.8h0C21.4,27.4,21.3,27.9,21.3,28.2Z" transform="translate(-6.8 -7.3)"/><path class="cls-54" d="M28.4,14.8h.2c.3.2.1.7.5.9h0c-.1.1-.2.1-.2,0S28.4,15.2,28.4,14.8Z" transform="translate(-6.8 -7.3)"/><path class="cls-50" d="M36.1,12.9c-.2,0-.2-.2-.2-.4s0-.3.2-.3.3.2.3.4A.3.3,0,0,1,36.1,12.9Z" transform="translate(-6.8 -7.3)"/><path class="cls-55" d="M30.6,22.4c-.1.2-.2.3-.4.3v-.2c-.1-.2-.1-.5.1-.5S30.6,22.3,30.6,22.4Z" transform="translate(-6.8 -7.3)"/><path class="cls-32" d="M32,18.4s.4-.3.4.1,0,.4-.2.4S32.1,18.4,32,18.4Z" transform="translate(-6.8 -7.3)"/><path class="cls-56" d="M31.2,11.3v.2l-.3.2c-.2.1-.4.1-.4,0s.1-.2.1-.4Z" transform="translate(-6.8 -7.3)"/><path class="cls-52" d="M33.9,11.7c.3-.1.6-.4,1.1-.1Z" transform="translate(-6.8 -7.3)"/><path class="cls-22" d="M26.4,28.2c-.2.2-.3.2-.5,0s.2-.5.6-.3S26.5,28.1,26.4,28.2Z" transform="translate(-6.8 -7.3)"/><path class="cls-57" d="M26.4,28.2v-.3H27v.3Z" transform="translate(-6.8 -7.3)"/><path class="cls-58" d="M30,23.8c-.1,0-.2,0-.2-.1s.1-.3.3-.2.1,0,.1.1S30.1,23.9,30,23.8Z" transform="translate(-6.8 -7.3)"/><path class="cls-21" d="M26.9,18a.2.2,0,0,1,0,.3h-.1C26.7,18.2,26.8,18.1,26.9,18Z" transform="translate(-6.8 -7.3)"/><path class="cls-52" d="M35.4,11.7c-.1,0-.2,0-.1-.1h.3Z" transform="translate(-6.8 -7.3)"/><path class="cls-52" d="M31.2,11.3h0Z" transform="translate(-6.8 -7.3)"/><path class="cls-17" d="M35.2,15.4c.1-.3.2-.6.6-.7S35.5,15.3,35.2,15.4Z" transform="translate(-6.8 -7.3)"/><path class="cls-13" d="M26.5,14.7a.5.5,0,0,1,.4-.6C26.8,14.4,26.8,14.6,26.5,14.7Z" transform="translate(-6.8 -7.3)"/><path class="cls-17" d="M20.8,27.4a.8.8,0,0,1-.2.8c-.2,0-.3-.1-.2-.2a.9.9,0,0,0,.3-.6Z" transform="translate(-6.8 -7.3)"/><path class="cls-17" d="M28.4,25.9l-.2.2v-.2h.2Z" transform="translate(-6.8 -7.3)"/><path class="cls-17" d="M35.5,14.2a.4.4,0,0,1-.4.4C35.2,14.4,35.3,14.2,35.5,14.2Z" transform="translate(-6.8 -7.3)"/></svg>